<?xml version="1.0" encoding="UTF-8"?>
<!DOCTYPE svg PUBLIC "-//W3C//DTD SVG 1.1//EN" "http://www.w3.org/Graphics/SVG/1.1/DTD/svg11.dtd">
<svg xmlns="http://www.w3.org/2000/svg" version="1.1" width="1536px" height="1536px" style="shape-rendering:geometricPrecision; text-rendering:geometricPrecision; image-rendering:optimizeQuality; fill-rule:evenodd; clip-rule:evenodd" xmlns:xlink="http://www.w3.org/1999/xlink">
<g><path style="opacity:1" fill="#0e0011" d="M 1175.5,415.5 C 1175.5,423.5 1175.5,431.5 1175.5,439.5C 1183.5,439.5 1191.5,439.5 1199.5,439.5C 1199.5,471.5 1199.5,503.5 1199.5,535.5C 1207.5,535.5 1215.5,535.5 1223.5,535.5C 1223.5,551.5 1223.5,567.5 1223.5,583.5C 1215.5,583.5 1207.5,583.5 1199.5,583.5C 1199.5,591.5 1199.5,599.5 1199.5,607.5C 1183.5,607.5 1167.5,607.5 1151.5,607.5C 1151.5,615.5 1151.5,623.5 1151.5,631.5C 1143.5,631.5 1135.5,631.5 1127.5,631.5C 1127.5,639.5 1127.5,647.5 1127.5,655.5C 1111.5,655.5 1095.5,655.5 1079.5,655.5C 1079.5,663.5 1079.5,671.5 1079.5,679.5C 1063.5,679.5 1047.5,679.5 1031.5,679.5C 1031.5,687.5 1031.5,695.5 1031.5,703.5C 1015.5,703.5 999.5,703.5 983.5,703.5C 983.5,711.5 983.5,719.5 983.5,727.5C 967.5,727.5 951.5,727.5 935.5,727.5C 935.5,735.5 935.5,743.5 935.5,751.5C 919.5,751.5 903.5,751.5 887.5,751.5C 887.5,759.5 887.5,767.5 887.5,775.5C 871.5,775.5 855.5,775.5 839.5,775.5C 839.5,783.5 839.5,791.5 839.5,799.5C 831.5,799.5 823.5,799.5 815.5,799.5C 783.5,799.5 751.5,799.5 719.5,799.5C 719.5,791.5 719.5,783.5 719.5,775.5C 703.5,775.5 687.5,775.5 671.5,775.5C 671.5,767.5 671.5,759.5 671.5,751.5C 655.5,751.5 639.5,751.5 623.5,751.5C 623.5,743.5 623.5,735.5 623.5,727.5C 607.5,727.5 591.5,727.5 575.5,727.5C 575.5,719.5 575.5,711.5 575.5,703.5C 559.5,703.5 543.5,703.5 527.5,703.5C 527.5,695.5 527.5,687.5 527.5,679.5C 511.5,679.5 495.5,679.5 479.5,679.5C 479.5,671.5 479.5,663.5 479.5,655.5C 463.5,655.5 447.5,655.5 431.5,655.5C 431.5,647.5 431.5,639.5 431.5,631.5C 423.5,631.5 415.5,631.5 407.5,631.5C 407.5,623.5 407.5,615.5 407.5,607.5C 391.5,607.5 375.5,607.5 359.5,607.5C 359.5,599.5 359.5,591.5 359.5,583.5C 351.5,583.5 343.5,583.5 335.5,583.5C 335.5,567.5 335.5,551.5 335.5,535.5C 343.5,535.5 351.5,535.5 359.5,535.5C 359.5,503.5 359.5,471.5 359.5,439.5C 367.5,439.5 375.5,439.5 383.5,439.5C 383.5,431.5 383.5,423.5 383.5,415.5C 383.5,407.5 383.5,399.5 383.5,391.5C 391.5,391.5 399.5,391.5 407.5,391.5C 407.5,383.5 407.5,375.5 407.5,367.5C 415.5,367.5 423.5,367.5 431.5,367.5C 431.5,359.5 431.5,351.5 431.5,343.5C 439.5,343.5 447.5,343.5 455.5,343.5C 455.5,335.5 455.5,327.5 455.5,319.5C 463.5,319.5 471.5,319.5 479.5,319.5C 479.5,311.5 479.5,303.5 479.5,295.5C 487.5,295.5 495.5,295.5 503.5,295.5C 503.5,287.5 503.5,279.5 503.5,271.5C 511.5,271.5 519.5,271.5 527.5,271.5C 527.5,263.5 527.5,255.5 527.5,247.5C 535.5,247.5 543.5,247.5 551.5,247.5C 551.5,239.5 551.5,231.5 551.5,223.5C 559.5,223.5 567.5,223.5 575.5,223.5C 575.5,215.5 575.5,207.5 575.5,199.5C 591.5,199.5 607.5,199.5 623.5,199.5C 623.5,191.5 623.5,183.5 623.5,175.5C 647.5,175.5 671.5,175.5 695.5,175.5C 695.5,167.5 695.5,159.5 695.5,151.5C 751.5,151.5 807.5,151.5 863.5,151.5C 863.5,159.5 863.5,167.5 863.5,175.5C 895.5,175.5 927.5,175.5 959.5,175.5C 959.5,183.5 959.5,191.5 959.5,199.5C 975.5,199.5 991.5,199.5 1007.5,199.5C 1007.5,207.5 1007.5,215.5 1007.5,223.5C 1023.5,223.5 1039.5,223.5 1055.5,223.5C 1055.5,231.5 1055.5,239.5 1055.5,247.5C 1063.5,247.5 1071.5,247.5 1079.5,247.5C 1079.5,255.5 1079.5,263.5 1079.5,271.5C 1087.5,271.5 1095.5,271.5 1103.5,271.5C 1103.5,279.5 1103.5,287.5 1103.5,295.5C 1111.5,295.5 1119.5,295.5 1127.5,295.5C 1127.5,303.5 1127.5,311.5 1127.5,319.5C 1135.5,319.5 1143.5,319.5 1151.5,319.5C 1151.5,327.5 1151.5,335.5 1151.5,343.5C 1159.5,343.5 1167.5,343.5 1175.5,343.5C 1175.5,367.5 1175.5,391.5 1175.5,415.5 Z"/></g>
<g><path style="opacity:1" fill="#74757e" d="M 383.5,415.5 C 383.5,423.5 383.5,431.5 383.5,439.5C 375.5,439.5 367.5,439.5 359.5,439.5C 359.5,431.5 359.5,423.5 359.5,415.5C 367.5,415.5 375.5,415.5 383.5,415.5 Z"/></g>
<g><path style="opacity:1" fill="#4f4e57" d="M 1175.5,415.5 C 1183.5,415.5 1191.5,415.5 1199.5,415.5C 1199.5,423.5 1199.5,431.5 1199.5,439.5C 1199.5,431.5 1199.5,423.5 1199.5,415.5C 1191.5,415.5 1183.5,415.5 1175.5,415.5 Z"/></g>
<g><path style="opacity:1" fill="#74757e" d="M 359.5,439.5 C 359.5,471.5 359.5,503.5 359.5,535.5C 351.5,535.5 343.5,535.5 335.5,535.5C 319.5,535.5 303.5,535.5 287.5,535.5C 287.5,527.5 287.5,519.5 287.5,511.5C 263.5,511.5 239.5,511.5 215.5,511.5C 215.5,503.5 215.5,495.5 215.5,487.5C 231.5,487.5 247.5,487.5 263.5,487.5C 263.5,479.5 263.5,471.5 263.5,463.5C 279.5,463.5 295.5,463.5 311.5,463.5C 311.5,455.5 311.5,447.5 311.5,439.5C 327.5,439.5 343.5,439.5 359.5,439.5 Z"/></g>
<g><path style="opacity:1" fill="#4f4e57" d="M 1199.5,439.5 C 1215.5,439.5 1231.5,439.5 1247.5,439.5C 1247.5,447.5 1247.5,455.5 1247.5,463.5C 1263.5,463.5 1279.5,463.5 1295.5,463.5C 1295.5,471.5 1295.5,479.5 1295.5,487.5C 1311.5,487.5 1327.5,487.5 1343.5,487.5C 1343.5,495.5 1343.5,503.5 1343.5,511.5C 1319.5,511.5 1295.5,511.5 1271.5,511.5C 1271.5,519.5 1271.5,527.5 1271.5,535.5C 1255.5,535.5 1239.5,535.5 1223.5,535.5C 1215.5,535.5 1207.5,535.5 1199.5,535.5C 1199.5,503.5 1199.5,471.5 1199.5,439.5 Z"/></g>
<g><path style="opacity:1" fill="#74757e" d="M 215.5,511.5 C 215.5,519.5 215.5,527.5 215.5,535.5C 207.5,535.5 199.5,535.5 191.5,535.5C 191.5,527.5 191.5,519.5 191.5,511.5C 199.5,511.5 207.5,511.5 215.5,511.5 Z"/></g>
<g><path style="opacity:1" fill="#9ca0a7" d="M 215.5,511.5 C 239.5,511.5 263.5,511.5 287.5,511.5C 287.5,519.5 287.5,527.5 287.5,535.5C 303.5,535.5 319.5,535.5 335.5,535.5C 335.5,551.5 335.5,567.5 335.5,583.5C 343.5,583.5 351.5,583.5 359.5,583.5C 359.5,591.5 359.5,599.5 359.5,607.5C 375.5,607.5 391.5,607.5 407.5,607.5C 407.5,615.5 407.5,623.5 407.5,631.5C 415.5,631.5 423.5,631.5 431.5,631.5C 431.5,639.5 431.5,647.5 431.5,655.5C 447.5,655.5 463.5,655.5 479.5,655.5C 479.5,663.5 479.5,671.5 479.5,679.5C 495.5,679.5 511.5,679.5 527.5,679.5C 527.5,687.5 527.5,695.5 527.5,703.5C 543.5,703.5 559.5,703.5 575.5,703.5C 575.5,711.5 575.5,719.5 575.5,727.5C 591.5,727.5 607.5,727.5 623.5,727.5C 623.5,735.5 623.5,743.5 623.5,751.5C 639.5,751.5 655.5,751.5 671.5,751.5C 671.5,759.5 671.5,767.5 671.5,775.5C 687.5,775.5 703.5,775.5 719.5,775.5C 719.5,783.5 719.5,791.5 719.5,799.5C 751.5,799.5 783.5,799.5 815.5,799.5C 815.5,807.5 815.5,815.5 815.5,823.5C 831.5,823.5 847.5,823.5 863.5,823.5C 863.5,831.5 863.5,839.5 863.5,847.5C 879.5,847.5 895.5,847.5 911.5,847.5C 911.5,855.5 911.5,863.5 911.5,871.5C 927.5,871.5 943.5,871.5 959.5,871.5C 959.5,879.5 959.5,887.5 959.5,895.5C 975.5,895.5 991.5,895.5 1007.5,895.5C 1007.5,903.5 1007.5,911.5 1007.5,919.5C 1015.5,919.5 1023.5,919.5 1031.5,919.5C 1047.5,919.5 1063.5,919.5 1079.5,919.5C 1087.5,919.5 1095.5,919.5 1103.5,919.5C 1103.5,927.5 1103.5,935.5 1103.5,943.5C 1111.5,943.5 1119.5,943.5 1127.5,943.5C 1151.5,943.5 1175.5,943.5 1199.5,943.5C 1199.5,951.5 1199.5,959.5 1199.5,967.5C 1207.5,967.5 1215.5,967.5 1223.5,967.5C 1271.5,967.5 1319.5,967.5 1367.5,967.5C 1367.5,975.5 1367.5,983.5 1367.5,991.5C 1375.5,991.5 1383.5,991.5 1391.5,991.5C 1391.5,999.5 1391.5,1007.5 1391.5,1015.5C 1399.5,1015.5 1407.5,1015.5 1415.5,1015.5C 1415.5,1055.5 1415.5,1095.5 1415.5,1135.5C 1407.5,1135.5 1399.5,1135.5 1391.5,1135.5C 1391.5,1143.5 1391.5,1151.5 1391.5,1159.5C 1383.5,1159.5 1375.5,1159.5 1367.5,1159.5C 1367.5,1167.5 1367.5,1175.5 1367.5,1183.5C 1351.5,1183.5 1335.5,1183.5 1319.5,1183.5C 1295.5,1183.5 1271.5,1183.5 1247.5,1183.5C 1247.5,1175.5 1247.5,1167.5 1247.5,1159.5C 1215.5,1159.5 1183.5,1159.5 1151.5,1159.5C 1151.5,1151.5 1151.5,1143.5 1151.5,1135.5C 1119.5,1135.5 1087.5,1135.5 1055.5,1135.5C 1055.5,1127.5 1055.5,1119.5 1055.5,1111.5C 1047.5,1111.5 1039.5,1111.5 1031.5,1111.5C 1015.5,1111.5 999.5,1111.5 983.5,1111.5C 983.5,1103.5 983.5,1095.5 983.5,1087.5C 951.5,1087.5 919.5,1087.5 887.5,1087.5C 887.5,1079.5 887.5,1071.5 887.5,1063.5C 871.5,1063.5 855.5,1063.5 839.5,1063.5C 839.5,1055.5 839.5,1047.5 839.5,1039.5C 823.5,1039.5 807.5,1039.5 791.5,1039.5C 791.5,1031.5 791.5,1023.5 791.5,1015.5C 783.5,1015.5 775.5,1015.5 767.5,1015.5C 751.5,1015.5 735.5,1015.5 719.5,1015.5C 719.5,1007.5 719.5,999.5 719.5,991.5C 703.5,991.5 687.5,991.5 671.5,991.5C 671.5,983.5 671.5,975.5 671.5,967.5C 655.5,967.5 639.5,967.5 623.5,967.5C 623.5,959.5 623.5,951.5 623.5,943.5C 607.5,943.5 591.5,943.5 575.5,943.5C 575.5,935.5 575.5,927.5 575.5,919.5C 559.5,919.5 543.5,919.5 527.5,919.5C 527.5,911.5 527.5,903.5 527.5,895.5C 511.5,895.5 495.5,895.5 479.5,895.5C 479.5,887.5 479.5,879.5 479.5,871.5C 471.5,871.5 463.5,871.5 455.5,871.5C 455.5,863.5 455.5,855.5 455.5,847.5C 447.5,847.5 439.5,847.5 431.5,847.5C 423.5,847.5 415.5,847.5 407.5,847.5C 407.5,839.5 407.5,831.5 407.5,823.5C 391.5,823.5 375.5,823.5 359.5,823.5C 359.5,815.5 359.5,807.5 359.5,799.5C 343.5,799.5 327.5,799.5 311.5,799.5C 311.5,791.5 311.5,783.5 311.5,775.5C 295.5,775.5 279.5,775.5 263.5,775.5C 263.5,767.5 263.5,759.5 263.5,751.5C 247.5,751.5 231.5,751.5 215.5,751.5C 215.5,743.5 215.5,735.5 215.5,727.5C 207.5,727.5 199.5,727.5 191.5,727.5C 191.5,719.5 191.5,711.5 191.5,703.5C 183.5,703.5 175.5,703.5 167.5,703.5C 167.5,687.5 167.5,671.5 167.5,655.5C 159.5,655.5 151.5,655.5 143.5,655.5C 143.5,631.5 143.5,607.5 143.5,583.5C 151.5,583.5 159.5,583.5 167.5,583.5C 167.5,567.5 167.5,551.5 167.5,535.5C 175.5,535.5 183.5,535.5 191.5,535.5C 199.5,535.5 207.5,535.5 215.5,535.5C 215.5,527.5 215.5,519.5 215.5,511.5 Z"/></g>
<g><path style="opacity:1" fill="#74757e" d="M 1343.5,511.5 C 1343.5,519.5 1343.5,527.5 1343.5,535.5C 1351.5,535.5 1359.5,535.5 1367.5,535.5C 1375.5,535.5 1383.5,535.5 1391.5,535.5C 1391.5,551.5 1391.5,567.5 1391.5,583.5C 1399.5,583.5 1407.5,583.5 1415.5,583.5C 1415.5,607.5 1415.5,631.5 1415.5,655.5C 1407.5,655.5 1399.5,655.5 1391.5,655.5C 1391.5,671.5 1391.5,687.5 1391.5,703.5C 1383.5,703.5 1375.5,703.5 1367.5,703.5C 1367.5,711.5 1367.5,719.5 1367.5,727.5C 1359.5,727.5 1351.5,727.5 1343.5,727.5C 1343.5,735.5 1343.5,743.5 1343.5,751.5C 1327.5,751.5 1311.5,751.5 1295.5,751.5C 1295.5,759.5 1295.5,767.5 1295.5,775.5C 1287.5,775.5 1279.5,775.5 1271.5,775.5C 1263.5,775.5 1255.5,775.5 1247.5,775.5C 1247.5,783.5 1247.5,791.5 1247.5,799.5C 1231.5,799.5 1215.5,799.5 1199.5,799.5C 1199.5,807.5 1199.5,815.5 1199.5,823.5C 1183.5,823.5 1167.5,823.5 1151.5,823.5C 1151.5,831.5 1151.5,839.5 1151.5,847.5C 1143.5,847.5 1135.5,847.5 1127.5,847.5C 1119.5,847.5 1111.5,847.5 1103.5,847.5C 1103.5,855.5 1103.5,863.5 1103.5,871.5C 1095.5,871.5 1087.5,871.5 1079.5,871.5C 1079.5,879.5 1079.5,887.5 1079.5,895.5C 1063.5,895.5 1047.5,895.5 1031.5,895.5C 1031.5,903.5 1031.5,911.5 1031.5,919.5C 1023.5,919.5 1015.5,919.5 1007.5,919.5C 1007.5,911.5 1007.5,903.5 1007.5,895.5C 991.5,895.5 975.5,895.5 959.5,895.5C 959.5,887.5 959.5,879.5 959.5,871.5C 943.5,871.5 927.5,871.5 911.5,871.5C 911.5,863.5 911.5,855.5 911.5,847.5C 895.5,847.5 879.5,847.5 863.5,847.5C 863.5,839.5 863.5,831.5 863.5,823.5C 847.5,823.5 831.5,823.5 815.5,823.5C 815.5,815.5 815.5,807.5 815.5,799.5C 823.5,799.5 831.5,799.5 839.5,799.5C 839.5,791.5 839.5,783.5 839.5,775.5C 855.5,775.5 871.5,775.5 887.5,775.5C 887.5,767.5 887.5,759.5 887.5,751.5C 903.5,751.5 919.5,751.5 935.5,751.5C 935.5,743.5 935.5,735.5 935.5,727.5C 951.5,727.5 967.5,727.5 983.5,727.5C 983.5,719.5 983.5,711.5 983.5,703.5C 999.5,703.5 1015.5,703.5 1031.5,703.5C 1031.5,695.5 1031.5,687.5 1031.5,679.5C 1047.5,679.5 1063.5,679.5 1079.5,679.5C 1079.5,671.5 1079.5,663.5 1079.5,655.5C 1095.5,655.5 1111.5,655.5 1127.5,655.5C 1127.5,647.5 1127.5,639.5 1127.5,631.5C 1135.5,631.5 1143.5,631.5 1151.5,631.5C 1151.5,623.5 1151.5,615.5 1151.5,607.5C 1167.5,607.5 1183.5,607.5 1199.5,607.5C 1199.5,599.5 1199.5,591.5 1199.5,583.5C 1207.5,583.5 1215.5,583.5 1223.5,583.5C 1223.5,567.5 1223.5,551.5 1223.5,535.5C 1239.5,535.5 1255.5,535.5 1271.5,535.5C 1271.5,527.5 1271.5,519.5 1271.5,511.5C 1295.5,511.5 1319.5,511.5 1343.5,511.5 Z"/></g>
<g><path style="opacity:1" fill="#4f4e57" d="M 1343.5,511.5 C 1351.5,511.5 1359.5,511.5 1367.5,511.5C 1367.5,519.5 1367.5,527.5 1367.5,535.5C 1367.5,527.5 1367.5,519.5 1367.5,511.5C 1359.5,511.5 1351.5,511.5 1343.5,511.5 Z"/></g>
<g><path style="opacity:1" fill="#c7ccd2" d="M 335.5,631.5 C 335.5,639.5 335.5,647.5 335.5,655.5C 327.5,655.5 319.5,655.5 311.5,655.5C 311.5,647.5 311.5,639.5 311.5,631.5C 295.5,631.5 279.5,631.5 263.5,631.5C 263.5,639.5 263.5,647.5 263.5,655.5C 247.5,655.5 231.5,655.5 215.5,655.5C 215.5,647.5 215.5,639.5 215.5,631.5C 223.5,631.5 231.5,631.5 239.5,631.5C 239.5,623.5 239.5,615.5 239.5,607.5C 247.5,607.5 255.5,607.5 263.5,607.5C 263.5,599.5 263.5,591.5 263.5,583.5C 279.5,583.5 295.5,583.5 311.5,583.5C 311.5,591.5 311.5,599.5 311.5,607.5C 319.5,607.5 327.5,607.5 335.5,607.5C 335.5,615.5 335.5,623.5 335.5,631.5 Z"/></g>
<g><path style="opacity:1" fill="#c7ccd2" d="M 1343.5,655.5 C 1327.5,655.5 1311.5,655.5 1295.5,655.5C 1295.5,647.5 1295.5,639.5 1295.5,631.5C 1279.5,631.5 1263.5,631.5 1247.5,631.5C 1247.5,639.5 1247.5,647.5 1247.5,655.5C 1239.5,655.5 1231.5,655.5 1223.5,655.5C 1223.5,647.5 1223.5,639.5 1223.5,631.5C 1223.5,623.5 1223.5,615.5 1223.5,607.5C 1231.5,607.5 1239.5,607.5 1247.5,607.5C 1247.5,599.5 1247.5,591.5 1247.5,583.5C 1263.5,583.5 1279.5,583.5 1295.5,583.5C 1295.5,591.5 1295.5,599.5 1295.5,607.5C 1303.5,607.5 1311.5,607.5 1319.5,607.5C 1319.5,615.5 1319.5,623.5 1319.5,631.5C 1327.5,631.5 1335.5,631.5 1343.5,631.5C 1343.5,639.5 1343.5,647.5 1343.5,655.5 Z"/></g>
<g><path style="opacity:1" fill="#0e0011" d="M 311.5,655.5 C 311.5,663.5 311.5,671.5 311.5,679.5C 295.5,679.5 279.5,679.5 263.5,679.5C 263.5,671.5 263.5,663.5 263.5,655.5C 263.5,647.5 263.5,639.5 263.5,631.5C 279.5,631.5 295.5,631.5 311.5,631.5C 311.5,639.5 311.5,647.5 311.5,655.5 Z"/></g>
<g><path style="opacity:1" fill="#f4fafe" d="M 335.5,631.5 C 343.5,631.5 351.5,631.5 359.5,631.5C 359.5,647.5 359.5,663.5 359.5,679.5C 351.5,679.5 343.5,679.5 335.5,679.5C 335.5,687.5 335.5,695.5 335.5,703.5C 327.5,703.5 319.5,703.5 311.5,703.5C 311.5,711.5 311.5,719.5 311.5,727.5C 295.5,727.5 279.5,727.5 263.5,727.5C 263.5,719.5 263.5,711.5 263.5,703.5C 255.5,703.5 247.5,703.5 239.5,703.5C 239.5,695.5 239.5,687.5 239.5,679.5C 231.5,679.5 223.5,679.5 215.5,679.5C 215.5,671.5 215.5,663.5 215.5,655.5C 231.5,655.5 247.5,655.5 263.5,655.5C 263.5,663.5 263.5,671.5 263.5,679.5C 279.5,679.5 295.5,679.5 311.5,679.5C 311.5,671.5 311.5,663.5 311.5,655.5C 319.5,655.5 327.5,655.5 335.5,655.5C 335.5,647.5 335.5,639.5 335.5,631.5 Z"/></g>
<g><path style="opacity:1" fill="#f4fafe" d="M 1223.5,631.5 C 1223.5,639.5 1223.5,647.5 1223.5,655.5C 1231.5,655.5 1239.5,655.5 1247.5,655.5C 1247.5,663.5 1247.5,671.5 1247.5,679.5C 1263.5,679.5 1279.5,679.5 1295.5,679.5C 1295.5,671.5 1295.5,663.5 1295.5,655.5C 1311.5,655.5 1327.5,655.5 1343.5,655.5C 1343.5,663.5 1343.5,671.5 1343.5,679.5C 1335.5,679.5 1327.5,679.5 1319.5,679.5C 1319.5,687.5 1319.5,695.5 1319.5,703.5C 1311.5,703.5 1303.5,703.5 1295.5,703.5C 1295.5,711.5 1295.5,719.5 1295.5,727.5C 1279.5,727.5 1263.5,727.5 1247.5,727.5C 1247.5,719.5 1247.5,711.5 1247.5,703.5C 1239.5,703.5 1231.5,703.5 1223.5,703.5C 1223.5,695.5 1223.5,687.5 1223.5,679.5C 1215.5,679.5 1207.5,679.5 1199.5,679.5C 1199.5,663.5 1199.5,647.5 1199.5,631.5C 1207.5,631.5 1215.5,631.5 1223.5,631.5 Z"/></g>
<g><path style="opacity:1" fill="#0e0011" d="M 1295.5,655.5 C 1295.5,663.5 1295.5,671.5 1295.5,679.5C 1279.5,679.5 1263.5,679.5 1247.5,679.5C 1247.5,671.5 1247.5,663.5 1247.5,655.5C 1247.5,647.5 1247.5,639.5 1247.5,631.5C 1263.5,631.5 1279.5,631.5 1295.5,631.5C 1295.5,639.5 1295.5,647.5 1295.5,655.5 Z"/></g>
<g><path style="opacity:1" fill="#c7ccd2" d="M 575.5,775.5 C 575.5,783.5 575.5,791.5 575.5,799.5C 567.5,799.5 559.5,799.5 551.5,799.5C 551.5,791.5 551.5,783.5 551.5,775.5C 535.5,775.5 519.5,775.5 503.5,775.5C 503.5,783.5 503.5,791.5 503.5,799.5C 487.5,799.5 471.5,799.5 455.5,799.5C 455.5,791.5 455.5,783.5 455.5,775.5C 463.5,775.5 471.5,775.5 479.5,775.5C 479.5,767.5 479.5,759.5 479.5,751.5C 487.5,751.5 495.5,751.5 503.5,751.5C 503.5,743.5 503.5,735.5 503.5,727.5C 519.5,727.5 535.5,727.5 551.5,727.5C 551.5,735.5 551.5,743.5 551.5,751.5C 559.5,751.5 567.5,751.5 575.5,751.5C 575.5,759.5 575.5,767.5 575.5,775.5 Z"/></g>
<g><path style="opacity:1" fill="#c7ccd2" d="M 1103.5,799.5 C 1087.5,799.5 1071.5,799.5 1055.5,799.5C 1055.5,791.5 1055.5,783.5 1055.5,775.5C 1039.5,775.5 1023.5,775.5 1007.5,775.5C 1007.5,783.5 1007.5,791.5 1007.5,799.5C 999.5,799.5 991.5,799.5 983.5,799.5C 983.5,791.5 983.5,783.5 983.5,775.5C 983.5,767.5 983.5,759.5 983.5,751.5C 991.5,751.5 999.5,751.5 1007.5,751.5C 1007.5,743.5 1007.5,735.5 1007.5,727.5C 1023.5,727.5 1039.5,727.5 1055.5,727.5C 1055.5,735.5 1055.5,743.5 1055.5,751.5C 1063.5,751.5 1071.5,751.5 1079.5,751.5C 1079.5,759.5 1079.5,767.5 1079.5,775.5C 1087.5,775.5 1095.5,775.5 1103.5,775.5C 1103.5,783.5 1103.5,791.5 1103.5,799.5 Z"/></g>
<g><path style="opacity:1" fill="#0e0011" d="M 551.5,799.5 C 551.5,807.5 551.5,815.5 551.5,823.5C 535.5,823.5 519.5,823.5 503.5,823.5C 503.5,815.5 503.5,807.5 503.5,799.5C 503.5,791.5 503.5,783.5 503.5,775.5C 519.5,775.5 535.5,775.5 551.5,775.5C 551.5,783.5 551.5,791.5 551.5,799.5 Z"/></g>
<g><path style="opacity:1" fill="#f4fafe" d="M 575.5,775.5 C 583.5,775.5 591.5,775.5 599.5,775.5C 599.5,791.5 599.5,807.5 599.5,823.5C 591.5,823.5 583.5,823.5 575.5,823.5C 575.5,831.5 575.5,839.5 575.5,847.5C 567.5,847.5 559.5,847.5 551.5,847.5C 551.5,855.5 551.5,863.5 551.5,871.5C 535.5,871.5 519.5,871.5 503.5,871.5C 503.5,863.5 503.5,855.5 503.5,847.5C 495.5,847.5 487.5,847.5 479.5,847.5C 479.5,839.5 479.5,831.5 479.5,823.5C 471.5,823.5 463.5,823.5 455.5,823.5C 455.5,815.5 455.5,807.5 455.5,799.5C 471.5,799.5 487.5,799.5 503.5,799.5C 503.5,807.5 503.5,815.5 503.5,823.5C 519.5,823.5 535.5,823.5 551.5,823.5C 551.5,815.5 551.5,807.5 551.5,799.5C 559.5,799.5 567.5,799.5 575.5,799.5C 575.5,791.5 575.5,783.5 575.5,775.5 Z"/></g>
<g><path style="opacity:1" fill="#f4fafe" d="M 983.5,775.5 C 983.5,783.5 983.5,791.5 983.5,799.5C 991.5,799.5 999.5,799.5 1007.5,799.5C 1007.5,807.5 1007.5,815.5 1007.5,823.5C 1023.5,823.5 1039.5,823.5 1055.5,823.5C 1055.5,815.5 1055.5,807.5 1055.5,799.5C 1071.5,799.5 1087.5,799.5 1103.5,799.5C 1103.5,807.5 1103.5,815.5 1103.5,823.5C 1095.5,823.5 1087.5,823.5 1079.5,823.5C 1079.5,831.5 1079.5,839.5 1079.5,847.5C 1071.5,847.5 1063.5,847.5 1055.5,847.5C 1055.5,855.5 1055.5,863.5 1055.5,871.5C 1039.5,871.5 1023.5,871.5 1007.5,871.5C 1007.5,863.5 1007.5,855.5 1007.5,847.5C 999.5,847.5 991.5,847.5 983.5,847.5C 983.5,839.5 983.5,831.5 983.5,823.5C 975.5,823.5 967.5,823.5 959.5,823.5C 959.5,807.5 959.5,791.5 959.5,775.5C 967.5,775.5 975.5,775.5 983.5,775.5 Z"/></g>
<g><path style="opacity:1" fill="#0e0011" d="M 1055.5,799.5 C 1055.5,807.5 1055.5,815.5 1055.5,823.5C 1039.5,823.5 1023.5,823.5 1007.5,823.5C 1007.5,815.5 1007.5,807.5 1007.5,799.5C 1007.5,791.5 1007.5,783.5 1007.5,775.5C 1023.5,775.5 1039.5,775.5 1055.5,775.5C 1055.5,783.5 1055.5,791.5 1055.5,799.5 Z"/></g>
<g><path style="opacity:1" fill="#0e0011" d="M 1271.5,775.5 C 1271.5,799.5 1271.5,823.5 1271.5,847.5C 1279.5,847.5 1287.5,847.5 1295.5,847.5C 1295.5,871.5 1295.5,895.5 1295.5,919.5C 1287.5,919.5 1279.5,919.5 1271.5,919.5C 1271.5,927.5 1271.5,935.5 1271.5,943.5C 1263.5,943.5 1255.5,943.5 1247.5,943.5C 1247.5,935.5 1247.5,927.5 1247.5,919.5C 1239.5,919.5 1231.5,919.5 1223.5,919.5C 1223.5,935.5 1223.5,951.5 1223.5,967.5C 1215.5,967.5 1207.5,967.5 1199.5,967.5C 1199.5,959.5 1199.5,951.5 1199.5,943.5C 1175.5,943.5 1151.5,943.5 1127.5,943.5C 1127.5,935.5 1127.5,927.5 1127.5,919.5C 1135.5,919.5 1143.5,919.5 1151.5,919.5C 1151.5,895.5 1151.5,871.5 1151.5,847.5C 1151.5,839.5 1151.5,831.5 1151.5,823.5C 1167.5,823.5 1183.5,823.5 1199.5,823.5C 1199.5,815.5 1199.5,807.5 1199.5,799.5C 1215.5,799.5 1231.5,799.5 1247.5,799.5C 1247.5,791.5 1247.5,783.5 1247.5,775.5C 1255.5,775.5 1263.5,775.5 1271.5,775.5 Z"/></g>
<g><path style="opacity:1" fill="#0e0011" d="M 311.5,799.5 C 327.5,799.5 343.5,799.5 359.5,799.5C 359.5,807.5 359.5,815.5 359.5,823.5C 375.5,823.5 391.5,823.5 407.5,823.5C 407.5,831.5 407.5,839.5 407.5,847.5C 407.5,871.5 407.5,895.5 407.5,919.5C 415.5,919.5 423.5,919.5 431.5,919.5C 431.5,927.5 431.5,935.5 431.5,943.5C 407.5,943.5 383.5,943.5 359.5,943.5C 359.5,951.5 359.5,959.5 359.5,967.5C 319.5,967.5 279.5,967.5 239.5,967.5C 239.5,959.5 239.5,951.5 239.5,943.5C 247.5,943.5 255.5,943.5 263.5,943.5C 263.5,935.5 263.5,927.5 263.5,919.5C 271.5,919.5 279.5,919.5 287.5,919.5C 287.5,911.5 287.5,903.5 287.5,895.5C 295.5,895.5 303.5,895.5 311.5,895.5C 311.5,863.5 311.5,831.5 311.5,799.5 Z"/></g>
<g><path style="opacity:1" fill="#c7ccd2" d="M 815.5,823.5 C 815.5,831.5 815.5,839.5 815.5,847.5C 823.5,847.5 831.5,847.5 839.5,847.5C 839.5,855.5 839.5,863.5 839.5,871.5C 847.5,871.5 855.5,871.5 863.5,871.5C 863.5,879.5 863.5,887.5 863.5,895.5C 855.5,895.5 847.5,895.5 839.5,895.5C 839.5,903.5 839.5,911.5 839.5,919.5C 831.5,919.5 823.5,919.5 815.5,919.5C 815.5,903.5 815.5,887.5 815.5,871.5C 791.5,871.5 767.5,871.5 743.5,871.5C 743.5,887.5 743.5,903.5 743.5,919.5C 735.5,919.5 727.5,919.5 719.5,919.5C 719.5,911.5 719.5,903.5 719.5,895.5C 711.5,895.5 703.5,895.5 695.5,895.5C 695.5,887.5 695.5,879.5 695.5,871.5C 703.5,871.5 711.5,871.5 719.5,871.5C 719.5,863.5 719.5,855.5 719.5,847.5C 727.5,847.5 735.5,847.5 743.5,847.5C 743.5,839.5 743.5,831.5 743.5,823.5C 767.5,823.5 791.5,823.5 815.5,823.5 Z"/></g>
<g><path style="opacity:1" fill="#c7ccd2" d="M 407.5,847.5 C 415.5,847.5 423.5,847.5 431.5,847.5C 431.5,871.5 431.5,895.5 431.5,919.5C 423.5,919.5 415.5,919.5 407.5,919.5C 407.5,895.5 407.5,871.5 407.5,847.5 Z"/></g>
<g><path style="opacity:1" fill="#0e0011" d="M 431.5,847.5 C 439.5,847.5 447.5,847.5 455.5,847.5C 455.5,855.5 455.5,863.5 455.5,871.5C 455.5,887.5 455.5,903.5 455.5,919.5C 447.5,919.5 439.5,919.5 431.5,919.5C 431.5,895.5 431.5,871.5 431.5,847.5 Z"/></g>
<g><path style="opacity:1" fill="#0e0011" d="M 1127.5,847.5 C 1127.5,871.5 1127.5,895.5 1127.5,919.5C 1119.5,919.5 1111.5,919.5 1103.5,919.5C 1103.5,903.5 1103.5,887.5 1103.5,871.5C 1103.5,863.5 1103.5,855.5 1103.5,847.5C 1111.5,847.5 1119.5,847.5 1127.5,847.5 Z"/></g>
<g><path style="opacity:1" fill="#c7ccd2" d="M 1127.5,847.5 C 1135.5,847.5 1143.5,847.5 1151.5,847.5C 1151.5,871.5 1151.5,895.5 1151.5,919.5C 1143.5,919.5 1135.5,919.5 1127.5,919.5C 1127.5,895.5 1127.5,871.5 1127.5,847.5 Z"/></g>
<g><path style="opacity:1" fill="#c7ccd2" d="M 455.5,871.5 C 463.5,871.5 471.5,871.5 479.5,871.5C 479.5,879.5 479.5,887.5 479.5,895.5C 479.5,903.5 479.5,911.5 479.5,919.5C 471.5,919.5 463.5,919.5 455.5,919.5C 455.5,903.5 455.5,887.5 455.5,871.5 Z"/></g>
<g><path style="opacity:1" fill="#0e0011" d="M 815.5,919.5 C 815.5,927.5 815.5,935.5 815.5,943.5C 791.5,943.5 767.5,943.5 743.5,943.5C 743.5,935.5 743.5,927.5 743.5,919.5C 743.5,903.5 743.5,887.5 743.5,871.5C 767.5,871.5 791.5,871.5 815.5,871.5C 815.5,887.5 815.5,903.5 815.5,919.5 Z"/></g>
<g><path style="opacity:1" fill="#c7ccd2" d="M 1103.5,871.5 C 1103.5,887.5 1103.5,903.5 1103.5,919.5C 1095.5,919.5 1087.5,919.5 1079.5,919.5C 1079.5,911.5 1079.5,903.5 1079.5,895.5C 1079.5,887.5 1079.5,879.5 1079.5,871.5C 1087.5,871.5 1095.5,871.5 1103.5,871.5 Z"/></g>
<g><path style="opacity:1" fill="#0e0011" d="M 479.5,895.5 C 495.5,895.5 511.5,895.5 527.5,895.5C 527.5,903.5 527.5,911.5 527.5,919.5C 511.5,919.5 495.5,919.5 479.5,919.5C 479.5,911.5 479.5,903.5 479.5,895.5 Z"/></g>
<g><path style="opacity:1" fill="#f4fafe" d="M 695.5,895.5 C 703.5,895.5 711.5,895.5 719.5,895.5C 719.5,903.5 719.5,911.5 719.5,919.5C 727.5,919.5 735.5,919.5 743.5,919.5C 743.5,927.5 743.5,935.5 743.5,943.5C 767.5,943.5 791.5,943.5 815.5,943.5C 815.5,935.5 815.5,927.5 815.5,919.5C 823.5,919.5 831.5,919.5 839.5,919.5C 839.5,911.5 839.5,903.5 839.5,895.5C 847.5,895.5 855.5,895.5 863.5,895.5C 863.5,911.5 863.5,927.5 863.5,943.5C 855.5,943.5 847.5,943.5 839.5,943.5C 839.5,951.5 839.5,959.5 839.5,967.5C 831.5,967.5 823.5,967.5 815.5,967.5C 815.5,975.5 815.5,983.5 815.5,991.5C 791.5,991.5 767.5,991.5 743.5,991.5C 743.5,983.5 743.5,975.5 743.5,967.5C 735.5,967.5 727.5,967.5 719.5,967.5C 719.5,959.5 719.5,951.5 719.5,943.5C 711.5,943.5 703.5,943.5 695.5,943.5C 695.5,927.5 695.5,911.5 695.5,895.5 Z"/></g>
<g><path style="opacity:1" fill="#0e0011" d="M 1079.5,895.5 C 1079.5,903.5 1079.5,911.5 1079.5,919.5C 1063.5,919.5 1047.5,919.5 1031.5,919.5C 1031.5,911.5 1031.5,903.5 1031.5,895.5C 1047.5,895.5 1063.5,895.5 1079.5,895.5 Z"/></g>
<g><path style="opacity:1" fill="#c7ccd2" d="M 431.5,919.5 C 439.5,919.5 447.5,919.5 455.5,919.5C 455.5,927.5 455.5,935.5 455.5,943.5C 447.5,943.5 439.5,943.5 431.5,943.5C 431.5,935.5 431.5,927.5 431.5,919.5 Z"/></g>
<g><path style="opacity:1" fill="#74757e" d="M 455.5,919.5 C 463.5,919.5 471.5,919.5 479.5,919.5C 495.5,919.5 511.5,919.5 527.5,919.5C 543.5,919.5 559.5,919.5 575.5,919.5C 575.5,927.5 575.5,935.5 575.5,943.5C 591.5,943.5 607.5,943.5 623.5,943.5C 623.5,951.5 623.5,959.5 623.5,967.5C 639.5,967.5 655.5,967.5 671.5,967.5C 671.5,975.5 671.5,983.5 671.5,991.5C 687.5,991.5 703.5,991.5 719.5,991.5C 719.5,999.5 719.5,1007.5 719.5,1015.5C 735.5,1015.5 751.5,1015.5 767.5,1015.5C 767.5,1023.5 767.5,1031.5 767.5,1039.5C 751.5,1039.5 735.5,1039.5 719.5,1039.5C 719.5,1047.5 719.5,1055.5 719.5,1063.5C 703.5,1063.5 687.5,1063.5 671.5,1063.5C 671.5,1071.5 671.5,1079.5 671.5,1087.5C 639.5,1087.5 607.5,1087.5 575.5,1087.5C 575.5,1095.5 575.5,1103.5 575.5,1111.5C 559.5,1111.5 543.5,1111.5 527.5,1111.5C 519.5,1111.5 511.5,1111.5 503.5,1111.5C 503.5,1119.5 503.5,1127.5 503.5,1135.5C 471.5,1135.5 439.5,1135.5 407.5,1135.5C 407.5,1143.5 407.5,1151.5 407.5,1159.5C 375.5,1159.5 343.5,1159.5 311.5,1159.5C 311.5,1167.5 311.5,1175.5 311.5,1183.5C 287.5,1183.5 263.5,1183.5 239.5,1183.5C 223.5,1183.5 207.5,1183.5 191.5,1183.5C 191.5,1175.5 191.5,1167.5 191.5,1159.5C 183.5,1159.5 175.5,1159.5 167.5,1159.5C 167.5,1151.5 167.5,1143.5 167.5,1135.5C 159.5,1135.5 151.5,1135.5 143.5,1135.5C 143.5,1095.5 143.5,1055.5 143.5,1015.5C 151.5,1015.5 159.5,1015.5 167.5,1015.5C 167.5,1007.5 167.5,999.5 167.5,991.5C 175.5,991.5 183.5,991.5 191.5,991.5C 191.5,983.5 191.5,975.5 191.5,967.5C 207.5,967.5 223.5,967.5 239.5,967.5C 279.5,967.5 319.5,967.5 359.5,967.5C 359.5,959.5 359.5,951.5 359.5,943.5C 383.5,943.5 407.5,943.5 431.5,943.5C 439.5,943.5 447.5,943.5 455.5,943.5C 455.5,935.5 455.5,927.5 455.5,919.5 Z"/></g>
<g><path style="opacity:1" fill="#c7ccd2" d="M 1103.5,919.5 C 1111.5,919.5 1119.5,919.5 1127.5,919.5C 1127.5,927.5 1127.5,935.5 1127.5,943.5C 1119.5,943.5 1111.5,943.5 1103.5,943.5C 1103.5,935.5 1103.5,927.5 1103.5,919.5 Z"/></g>
<g><path style="opacity:1" fill="#f4fafe" d="M 575.5,1039.5 C 575.5,1031.5 575.5,1023.5 575.5,1015.5C 567.5,1015.5 559.5,1015.5 551.5,1015.5C 551.5,1007.5 551.5,999.5 551.5,991.5C 535.5,991.5 519.5,991.5 503.5,991.5C 503.5,999.5 503.5,1007.5 503.5,1015.5C 487.5,1015.5 471.5,1015.5 455.5,1015.5C 455.5,1007.5 455.5,999.5 455.5,991.5C 463.5,991.5 471.5,991.5 479.5,991.5C 479.5,983.5 479.5,975.5 479.5,967.5C 487.5,967.5 495.5,967.5 503.5,967.5C 503.5,959.5 503.5,951.5 503.5,943.5C 519.5,943.5 535.5,943.5 551.5,943.5C 551.5,951.5 551.5,959.5 551.5,967.5C 559.5,967.5 567.5,967.5 575.5,967.5C 575.5,975.5 575.5,983.5 575.5,991.5C 583.5,991.5 591.5,991.5 599.5,991.5C 599.5,1007.5 599.5,1023.5 599.5,1039.5C 591.5,1039.5 583.5,1039.5 575.5,1039.5 Z"/></g>
<g><path style="opacity:1" fill="#f4fafe" d="M 1103.5,1015.5 C 1087.5,1015.5 1071.5,1015.5 1055.5,1015.5C 1055.5,1007.5 1055.5,999.5 1055.5,991.5C 1039.5,991.5 1023.5,991.5 1007.5,991.5C 1007.5,999.5 1007.5,1007.5 1007.5,1015.5C 999.5,1015.5 991.5,1015.5 983.5,1015.5C 983.5,1023.5 983.5,1031.5 983.5,1039.5C 975.5,1039.5 967.5,1039.5 959.5,1039.5C 959.5,1023.5 959.5,1007.5 959.5,991.5C 967.5,991.5 975.5,991.5 983.5,991.5C 983.5,983.5 983.5,975.5 983.5,967.5C 991.5,967.5 999.5,967.5 1007.5,967.5C 1007.5,959.5 1007.5,951.5 1007.5,943.5C 1023.5,943.5 1039.5,943.5 1055.5,943.5C 1055.5,951.5 1055.5,959.5 1055.5,967.5C 1063.5,967.5 1071.5,967.5 1079.5,967.5C 1079.5,975.5 1079.5,983.5 1079.5,991.5C 1087.5,991.5 1095.5,991.5 1103.5,991.5C 1103.5,999.5 1103.5,1007.5 1103.5,1015.5 Z"/></g>
<g><path style="opacity:1" fill="#f4fafe" d="M 335.5,1087.5 C 335.5,1079.5 335.5,1071.5 335.5,1063.5C 327.5,1063.5 319.5,1063.5 311.5,1063.5C 311.5,1055.5 311.5,1047.5 311.5,1039.5C 295.5,1039.5 279.5,1039.5 263.5,1039.5C 263.5,1047.5 263.5,1055.5 263.5,1063.5C 247.5,1063.5 231.5,1063.5 215.5,1063.5C 215.5,1055.5 215.5,1047.5 215.5,1039.5C 223.5,1039.5 231.5,1039.5 239.5,1039.5C 239.5,1031.5 239.5,1023.5 239.5,1015.5C 247.5,1015.5 255.5,1015.5 263.5,1015.5C 263.5,1007.5 263.5,999.5 263.5,991.5C 279.5,991.5 295.5,991.5 311.5,991.5C 311.5,999.5 311.5,1007.5 311.5,1015.5C 319.5,1015.5 327.5,1015.5 335.5,1015.5C 335.5,1023.5 335.5,1031.5 335.5,1039.5C 343.5,1039.5 351.5,1039.5 359.5,1039.5C 359.5,1055.5 359.5,1071.5 359.5,1087.5C 351.5,1087.5 343.5,1087.5 335.5,1087.5 Z"/></g>
<g><path style="opacity:1" fill="#0e0011" d="M 551.5,1015.5 C 551.5,1023.5 551.5,1031.5 551.5,1039.5C 535.5,1039.5 519.5,1039.5 503.5,1039.5C 503.5,1031.5 503.5,1023.5 503.5,1015.5C 503.5,1007.5 503.5,999.5 503.5,991.5C 519.5,991.5 535.5,991.5 551.5,991.5C 551.5,999.5 551.5,1007.5 551.5,1015.5 Z"/></g>
<g><path style="opacity:1" fill="#0e0011" d="M 1055.5,1015.5 C 1055.5,1023.5 1055.5,1031.5 1055.5,1039.5C 1039.5,1039.5 1023.5,1039.5 1007.5,1039.5C 1007.5,1031.5 1007.5,1023.5 1007.5,1015.5C 1007.5,1007.5 1007.5,999.5 1007.5,991.5C 1023.5,991.5 1039.5,991.5 1055.5,991.5C 1055.5,999.5 1055.5,1007.5 1055.5,1015.5 Z"/></g>
<g><path style="opacity:1" fill="#f4fafe" d="M 1343.5,1063.5 C 1327.5,1063.5 1311.5,1063.5 1295.5,1063.5C 1295.5,1055.5 1295.5,1047.5 1295.5,1039.5C 1279.5,1039.5 1263.5,1039.5 1247.5,1039.5C 1247.5,1047.5 1247.5,1055.5 1247.5,1063.5C 1239.5,1063.5 1231.5,1063.5 1223.5,1063.5C 1223.5,1071.5 1223.5,1079.5 1223.5,1087.5C 1215.5,1087.5 1207.5,1087.5 1199.5,1087.5C 1199.5,1071.5 1199.5,1055.5 1199.5,1039.5C 1207.5,1039.5 1215.5,1039.5 1223.5,1039.5C 1223.5,1031.5 1223.5,1023.5 1223.5,1015.5C 1231.5,1015.5 1239.5,1015.5 1247.5,1015.5C 1247.5,1007.5 1247.5,999.5 1247.5,991.5C 1263.5,991.5 1279.5,991.5 1295.5,991.5C 1295.5,999.5 1295.5,1007.5 1295.5,1015.5C 1303.5,1015.5 1311.5,1015.5 1319.5,1015.5C 1319.5,1023.5 1319.5,1031.5 1319.5,1039.5C 1327.5,1039.5 1335.5,1039.5 1343.5,1039.5C 1343.5,1047.5 1343.5,1055.5 1343.5,1063.5 Z"/></g>
<g><path style="opacity:1" fill="#c7ccd2" d="M 455.5,1015.5 C 471.5,1015.5 487.5,1015.5 503.5,1015.5C 503.5,1023.5 503.5,1031.5 503.5,1039.5C 519.5,1039.5 535.5,1039.5 551.5,1039.5C 551.5,1031.5 551.5,1023.5 551.5,1015.5C 559.5,1015.5 567.5,1015.5 575.5,1015.5C 575.5,1023.5 575.5,1031.5 575.5,1039.5C 575.5,1047.5 575.5,1055.5 575.5,1063.5C 567.5,1063.5 559.5,1063.5 551.5,1063.5C 551.5,1071.5 551.5,1079.5 551.5,1087.5C 535.5,1087.5 519.5,1087.5 503.5,1087.5C 503.5,1079.5 503.5,1071.5 503.5,1063.5C 495.5,1063.5 487.5,1063.5 479.5,1063.5C 479.5,1055.5 479.5,1047.5 479.5,1039.5C 471.5,1039.5 463.5,1039.5 455.5,1039.5C 455.5,1031.5 455.5,1023.5 455.5,1015.5 Z"/></g>
<g><path style="opacity:1" fill="#c7ccd2" d="M 767.5,1015.5 C 775.5,1015.5 783.5,1015.5 791.5,1015.5C 791.5,1023.5 791.5,1031.5 791.5,1039.5C 807.5,1039.5 823.5,1039.5 839.5,1039.5C 839.5,1047.5 839.5,1055.5 839.5,1063.5C 855.5,1063.5 871.5,1063.5 887.5,1063.5C 887.5,1071.5 887.5,1079.5 887.5,1087.5C 919.5,1087.5 951.5,1087.5 983.5,1087.5C 983.5,1095.5 983.5,1103.5 983.5,1111.5C 999.5,1111.5 1015.5,1111.5 1031.5,1111.5C 1031.5,1119.5 1031.5,1127.5 1031.5,1135.5C 1023.5,1135.5 1015.5,1135.5 1007.5,1135.5C 1007.5,1143.5 1007.5,1151.5 1007.5,1159.5C 999.5,1159.5 991.5,1159.5 983.5,1159.5C 983.5,1151.5 983.5,1143.5 983.5,1135.5C 951.5,1135.5 919.5,1135.5 887.5,1135.5C 887.5,1127.5 887.5,1119.5 887.5,1111.5C 871.5,1111.5 855.5,1111.5 839.5,1111.5C 839.5,1103.5 839.5,1095.5 839.5,1087.5C 823.5,1087.5 807.5,1087.5 791.5,1087.5C 791.5,1079.5 791.5,1071.5 791.5,1063.5C 783.5,1063.5 775.5,1063.5 767.5,1063.5C 767.5,1071.5 767.5,1079.5 767.5,1087.5C 751.5,1087.5 735.5,1087.5 719.5,1087.5C 719.5,1095.5 719.5,1103.5 719.5,1111.5C 703.5,1111.5 687.5,1111.5 671.5,1111.5C 671.5,1119.5 671.5,1127.5 671.5,1135.5C 639.5,1135.5 607.5,1135.5 575.5,1135.5C 575.5,1143.5 575.5,1151.5 575.5,1159.5C 567.5,1159.5 559.5,1159.5 551.5,1159.5C 551.5,1151.5 551.5,1143.5 551.5,1135.5C 543.5,1135.5 535.5,1135.5 527.5,1135.5C 527.5,1127.5 527.5,1119.5 527.5,1111.5C 543.5,1111.5 559.5,1111.5 575.5,1111.5C 575.5,1103.5 575.5,1095.5 575.5,1087.5C 607.5,1087.5 639.5,1087.5 671.5,1087.5C 671.5,1079.5 671.5,1071.5 671.5,1063.5C 687.5,1063.5 703.5,1063.5 719.5,1063.5C 719.5,1055.5 719.5,1047.5 719.5,1039.5C 735.5,1039.5 751.5,1039.5 767.5,1039.5C 767.5,1031.5 767.5,1023.5 767.5,1015.5 Z"/></g>
<g><path style="opacity:1" fill="#c7ccd2" d="M 1007.5,1015.5 C 1007.5,1023.5 1007.5,1031.5 1007.5,1039.5C 1023.5,1039.5 1039.5,1039.5 1055.5,1039.5C 1055.5,1031.5 1055.5,1023.5 1055.5,1015.5C 1071.5,1015.5 1087.5,1015.5 1103.5,1015.5C 1103.5,1023.5 1103.5,1031.5 1103.5,1039.5C 1095.5,1039.5 1087.5,1039.5 1079.5,1039.5C 1079.5,1047.5 1079.5,1055.5 1079.5,1063.5C 1071.5,1063.5 1063.5,1063.5 1055.5,1063.5C 1055.5,1071.5 1055.5,1079.5 1055.5,1087.5C 1039.5,1087.5 1023.5,1087.5 1007.5,1087.5C 1007.5,1079.5 1007.5,1071.5 1007.5,1063.5C 999.5,1063.5 991.5,1063.5 983.5,1063.5C 983.5,1055.5 983.5,1047.5 983.5,1039.5C 983.5,1031.5 983.5,1023.5 983.5,1015.5C 991.5,1015.5 999.5,1015.5 1007.5,1015.5 Z"/></g>
<g><path style="opacity:1" fill="#0e0011" d="M 311.5,1063.5 C 311.5,1071.5 311.5,1079.5 311.5,1087.5C 295.5,1087.5 279.5,1087.5 263.5,1087.5C 263.5,1079.5 263.5,1071.5 263.5,1063.5C 263.5,1055.5 263.5,1047.5 263.5,1039.5C 279.5,1039.5 295.5,1039.5 311.5,1039.5C 311.5,1047.5 311.5,1055.5 311.5,1063.5 Z"/></g>
<g><path style="opacity:1" fill="#0e0011" d="M 1295.5,1063.5 C 1295.5,1071.5 1295.5,1079.5 1295.5,1087.5C 1279.5,1087.5 1263.5,1087.5 1247.5,1087.5C 1247.5,1079.5 1247.5,1071.5 1247.5,1063.5C 1247.5,1055.5 1247.5,1047.5 1247.5,1039.5C 1263.5,1039.5 1279.5,1039.5 1295.5,1039.5C 1295.5,1047.5 1295.5,1055.5 1295.5,1063.5 Z"/></g>
<g><path style="opacity:1" fill="#c7ccd2" d="M 215.5,1063.5 C 231.5,1063.5 247.5,1063.5 263.5,1063.5C 263.5,1071.5 263.5,1079.5 263.5,1087.5C 279.5,1087.5 295.5,1087.5 311.5,1087.5C 311.5,1079.5 311.5,1071.5 311.5,1063.5C 319.5,1063.5 327.5,1063.5 335.5,1063.5C 335.5,1071.5 335.5,1079.5 335.5,1087.5C 335.5,1095.5 335.5,1103.5 335.5,1111.5C 327.5,1111.5 319.5,1111.5 311.5,1111.5C 311.5,1119.5 311.5,1127.5 311.5,1135.5C 295.5,1135.5 279.5,1135.5 263.5,1135.5C 263.5,1127.5 263.5,1119.5 263.5,1111.5C 255.5,1111.5 247.5,1111.5 239.5,1111.5C 239.5,1103.5 239.5,1095.5 239.5,1087.5C 231.5,1087.5 223.5,1087.5 215.5,1087.5C 215.5,1079.5 215.5,1071.5 215.5,1063.5 Z"/></g>
<g><path style="opacity:1" fill="#f4fafe" d="M 983.5,1159.5 C 983.5,1167.5 983.5,1175.5 983.5,1183.5C 975.5,1183.5 967.5,1183.5 959.5,1183.5C 959.5,1191.5 959.5,1199.5 959.5,1207.5C 951.5,1207.5 943.5,1207.5 935.5,1207.5C 935.5,1215.5 935.5,1223.5 935.5,1231.5C 927.5,1231.5 919.5,1231.5 911.5,1231.5C 911.5,1239.5 911.5,1247.5 911.5,1255.5C 903.5,1255.5 895.5,1255.5 887.5,1255.5C 887.5,1263.5 887.5,1271.5 887.5,1279.5C 871.5,1279.5 855.5,1279.5 839.5,1279.5C 839.5,1287.5 839.5,1295.5 839.5,1303.5C 823.5,1303.5 807.5,1303.5 791.5,1303.5C 791.5,1311.5 791.5,1319.5 791.5,1327.5C 783.5,1327.5 775.5,1327.5 767.5,1327.5C 767.5,1319.5 767.5,1311.5 767.5,1303.5C 751.5,1303.5 735.5,1303.5 719.5,1303.5C 719.5,1295.5 719.5,1287.5 719.5,1279.5C 703.5,1279.5 687.5,1279.5 671.5,1279.5C 671.5,1271.5 671.5,1263.5 671.5,1255.5C 663.5,1255.5 655.5,1255.5 647.5,1255.5C 647.5,1247.5 647.5,1239.5 647.5,1231.5C 639.5,1231.5 631.5,1231.5 623.5,1231.5C 623.5,1223.5 623.5,1215.5 623.5,1207.5C 615.5,1207.5 607.5,1207.5 599.5,1207.5C 599.5,1199.5 599.5,1191.5 599.5,1183.5C 591.5,1183.5 583.5,1183.5 575.5,1183.5C 575.5,1175.5 575.5,1167.5 575.5,1159.5C 575.5,1151.5 575.5,1143.5 575.5,1135.5C 607.5,1135.5 639.5,1135.5 671.5,1135.5C 671.5,1127.5 671.5,1119.5 671.5,1111.5C 687.5,1111.5 703.5,1111.5 719.5,1111.5C 719.5,1103.5 719.5,1095.5 719.5,1087.5C 735.5,1087.5 751.5,1087.5 767.5,1087.5C 767.5,1079.5 767.5,1071.5 767.5,1063.5C 775.5,1063.5 783.5,1063.5 791.5,1063.5C 791.5,1071.5 791.5,1079.5 791.5,1087.5C 807.5,1087.5 823.5,1087.5 839.5,1087.5C 839.5,1095.5 839.5,1103.5 839.5,1111.5C 855.5,1111.5 871.5,1111.5 887.5,1111.5C 887.5,1119.5 887.5,1127.5 887.5,1135.5C 919.5,1135.5 951.5,1135.5 983.5,1135.5C 983.5,1143.5 983.5,1151.5 983.5,1159.5 Z"/></g>
<g><path style="opacity:1" fill="#c7ccd2" d="M 1247.5,1063.5 C 1247.5,1071.5 1247.5,1079.5 1247.5,1087.5C 1263.5,1087.5 1279.5,1087.5 1295.5,1087.5C 1295.5,1079.5 1295.5,1071.5 1295.5,1063.5C 1311.5,1063.5 1327.5,1063.5 1343.5,1063.5C 1343.5,1071.5 1343.5,1079.5 1343.5,1087.5C 1335.5,1087.5 1327.5,1087.5 1319.5,1087.5C 1319.5,1095.5 1319.5,1103.5 1319.5,1111.5C 1311.5,1111.5 1303.5,1111.5 1295.5,1111.5C 1295.5,1119.5 1295.5,1127.5 1295.5,1135.5C 1279.5,1135.5 1263.5,1135.5 1247.5,1135.5C 1247.5,1127.5 1247.5,1119.5 1247.5,1111.5C 1239.5,1111.5 1231.5,1111.5 1223.5,1111.5C 1223.5,1103.5 1223.5,1095.5 1223.5,1087.5C 1223.5,1079.5 1223.5,1071.5 1223.5,1063.5C 1231.5,1063.5 1239.5,1063.5 1247.5,1063.5 Z"/></g>
<g><path style="opacity:1" fill="#0e0011" d="M 527.5,1111.5 C 527.5,1119.5 527.5,1127.5 527.5,1135.5C 535.5,1135.5 543.5,1135.5 551.5,1135.5C 551.5,1143.5 551.5,1151.5 551.5,1159.5C 559.5,1159.5 567.5,1159.5 575.5,1159.5C 575.5,1167.5 575.5,1175.5 575.5,1183.5C 583.5,1183.5 591.5,1183.5 599.5,1183.5C 599.5,1191.5 599.5,1199.5 599.5,1207.5C 607.5,1207.5 615.5,1207.5 623.5,1207.5C 623.5,1215.5 623.5,1223.5 623.5,1231.5C 631.5,1231.5 639.5,1231.5 647.5,1231.5C 647.5,1239.5 647.5,1247.5 647.5,1255.5C 655.5,1255.5 663.5,1255.5 671.5,1255.5C 671.5,1263.5 671.5,1271.5 671.5,1279.5C 687.5,1279.5 703.5,1279.5 719.5,1279.5C 719.5,1287.5 719.5,1295.5 719.5,1303.5C 735.5,1303.5 751.5,1303.5 767.5,1303.5C 767.5,1311.5 767.5,1319.5 767.5,1327.5C 775.5,1327.5 783.5,1327.5 791.5,1327.5C 791.5,1319.5 791.5,1311.5 791.5,1303.5C 807.5,1303.5 823.5,1303.5 839.5,1303.5C 839.5,1295.5 839.5,1287.5 839.5,1279.5C 855.5,1279.5 871.5,1279.5 887.5,1279.5C 887.5,1271.5 887.5,1263.5 887.5,1255.5C 895.5,1255.5 903.5,1255.5 911.5,1255.5C 911.5,1247.5 911.5,1239.5 911.5,1231.5C 919.5,1231.5 927.5,1231.5 935.5,1231.5C 935.5,1223.5 935.5,1215.5 935.5,1207.5C 943.5,1207.5 951.5,1207.5 959.5,1207.5C 959.5,1199.5 959.5,1191.5 959.5,1183.5C 967.5,1183.5 975.5,1183.5 983.5,1183.5C 983.5,1175.5 983.5,1167.5 983.5,1159.5C 991.5,1159.5 999.5,1159.5 1007.5,1159.5C 1007.5,1151.5 1007.5,1143.5 1007.5,1135.5C 1015.5,1135.5 1023.5,1135.5 1031.5,1135.5C 1031.5,1127.5 1031.5,1119.5 1031.5,1111.5C 1039.5,1111.5 1047.5,1111.5 1055.5,1111.5C 1055.5,1119.5 1055.5,1127.5 1055.5,1135.5C 1087.5,1135.5 1119.5,1135.5 1151.5,1135.5C 1151.5,1143.5 1151.5,1151.5 1151.5,1159.5C 1143.5,1159.5 1135.5,1159.5 1127.5,1159.5C 1127.5,1167.5 1127.5,1175.5 1127.5,1183.5C 1119.5,1183.5 1111.5,1183.5 1103.5,1183.5C 1103.5,1191.5 1103.5,1199.5 1103.5,1207.5C 1095.5,1207.5 1087.5,1207.5 1079.5,1207.5C 1079.5,1215.5 1079.5,1223.5 1079.5,1231.5C 1071.5,1231.5 1063.5,1231.5 1055.5,1231.5C 1055.5,1239.5 1055.5,1247.5 1055.5,1255.5C 1047.5,1255.5 1039.5,1255.5 1031.5,1255.5C 1031.5,1247.5 1031.5,1239.5 1031.5,1231.5C 1023.5,1231.5 1015.5,1231.5 1007.5,1231.5C 1007.5,1223.5 1007.5,1215.5 1007.5,1207.5C 999.5,1207.5 991.5,1207.5 983.5,1207.5C 983.5,1215.5 983.5,1223.5 983.5,1231.5C 975.5,1231.5 967.5,1231.5 959.5,1231.5C 959.5,1239.5 959.5,1247.5 959.5,1255.5C 951.5,1255.5 943.5,1255.5 935.5,1255.5C 935.5,1263.5 935.5,1271.5 935.5,1279.5C 927.5,1279.5 919.5,1279.5 911.5,1279.5C 911.5,1287.5 911.5,1295.5 911.5,1303.5C 895.5,1303.5 879.5,1303.5 863.5,1303.5C 863.5,1311.5 863.5,1319.5 863.5,1327.5C 847.5,1327.5 831.5,1327.5 815.5,1327.5C 815.5,1335.5 815.5,1343.5 815.5,1351.5C 791.5,1351.5 767.5,1351.5 743.5,1351.5C 743.5,1343.5 743.5,1335.5 743.5,1327.5C 727.5,1327.5 711.5,1327.5 695.5,1327.5C 695.5,1319.5 695.5,1311.5 695.5,1303.5C 679.5,1303.5 663.5,1303.5 647.5,1303.5C 647.5,1295.5 647.5,1287.5 647.5,1279.5C 639.5,1279.5 631.5,1279.5 623.5,1279.5C 623.5,1271.5 623.5,1263.5 623.5,1255.5C 615.5,1255.5 607.5,1255.5 599.5,1255.5C 599.5,1247.5 599.5,1239.5 599.5,1231.5C 591.5,1231.5 583.5,1231.5 575.5,1231.5C 575.5,1223.5 575.5,1215.5 575.5,1207.5C 567.5,1207.5 559.5,1207.5 551.5,1207.5C 551.5,1215.5 551.5,1223.5 551.5,1231.5C 543.5,1231.5 535.5,1231.5 527.5,1231.5C 527.5,1239.5 527.5,1247.5 527.5,1255.5C 519.5,1255.5 511.5,1255.5 503.5,1255.5C 503.5,1247.5 503.5,1239.5 503.5,1231.5C 495.5,1231.5 487.5,1231.5 479.5,1231.5C 479.5,1223.5 479.5,1215.5 479.5,1207.5C 471.5,1207.5 463.5,1207.5 455.5,1207.5C 455.5,1199.5 455.5,1191.5 455.5,1183.5C 447.5,1183.5 439.5,1183.5 431.5,1183.5C 431.5,1175.5 431.5,1167.5 431.5,1159.5C 423.5,1159.5 415.5,1159.5 407.5,1159.5C 407.5,1151.5 407.5,1143.5 407.5,1135.5C 439.5,1135.5 471.5,1135.5 503.5,1135.5C 503.5,1127.5 503.5,1119.5 503.5,1111.5C 511.5,1111.5 519.5,1111.5 527.5,1111.5 Z"/></g>
<g><path style="opacity:1" fill="#4f4e57" d="M 407.5,1159.5 C 415.5,1159.5 423.5,1159.5 431.5,1159.5C 431.5,1167.5 431.5,1175.5 431.5,1183.5C 439.5,1183.5 447.5,1183.5 455.5,1183.5C 455.5,1191.5 455.5,1199.5 455.5,1207.5C 463.5,1207.5 471.5,1207.5 479.5,1207.5C 479.5,1215.5 479.5,1223.5 479.5,1231.5C 487.5,1231.5 495.5,1231.5 503.5,1231.5C 503.5,1239.5 503.5,1247.5 503.5,1255.5C 511.5,1255.5 519.5,1255.5 527.5,1255.5C 527.5,1247.5 527.5,1239.5 527.5,1231.5C 535.5,1231.5 543.5,1231.5 551.5,1231.5C 551.5,1223.5 551.5,1215.5 551.5,1207.5C 559.5,1207.5 567.5,1207.5 575.5,1207.5C 575.5,1215.5 575.5,1223.5 575.5,1231.5C 583.5,1231.5 591.5,1231.5 599.5,1231.5C 599.5,1239.5 599.5,1247.5 599.5,1255.5C 607.5,1255.5 615.5,1255.5 623.5,1255.5C 623.5,1263.5 623.5,1271.5 623.5,1279.5C 575.5,1279.5 527.5,1279.5 479.5,1279.5C 479.5,1271.5 479.5,1263.5 479.5,1255.5C 447.5,1255.5 415.5,1255.5 383.5,1255.5C 383.5,1247.5 383.5,1239.5 383.5,1231.5C 359.5,1231.5 335.5,1231.5 311.5,1231.5C 311.5,1223.5 311.5,1215.5 311.5,1207.5C 287.5,1207.5 263.5,1207.5 239.5,1207.5C 239.5,1199.5 239.5,1191.5 239.5,1183.5C 263.5,1183.5 287.5,1183.5 311.5,1183.5C 311.5,1175.5 311.5,1167.5 311.5,1159.5C 343.5,1159.5 375.5,1159.5 407.5,1159.5 Z"/></g>
<g><path style="opacity:1" fill="#74757e" d="M 1151.5,1159.5 C 1183.5,1159.5 1215.5,1159.5 1247.5,1159.5C 1247.5,1167.5 1247.5,1175.5 1247.5,1183.5C 1271.5,1183.5 1295.5,1183.5 1319.5,1183.5C 1319.5,1191.5 1319.5,1199.5 1319.5,1207.5C 1295.5,1207.5 1271.5,1207.5 1247.5,1207.5C 1247.5,1215.5 1247.5,1223.5 1247.5,1231.5C 1223.5,1231.5 1199.5,1231.5 1175.5,1231.5C 1175.5,1239.5 1175.5,1247.5 1175.5,1255.5C 1143.5,1255.5 1111.5,1255.5 1079.5,1255.5C 1079.5,1263.5 1079.5,1271.5 1079.5,1279.5C 1031.5,1279.5 983.5,1279.5 935.5,1279.5C 935.5,1271.5 935.5,1263.5 935.5,1255.5C 943.5,1255.5 951.5,1255.5 959.5,1255.5C 959.5,1247.5 959.5,1239.5 959.5,1231.5C 967.5,1231.5 975.5,1231.5 983.5,1231.5C 983.5,1223.5 983.5,1215.5 983.5,1207.5C 991.5,1207.5 999.5,1207.5 1007.5,1207.5C 1007.5,1215.5 1007.5,1223.5 1007.5,1231.5C 1015.5,1231.5 1023.5,1231.5 1031.5,1231.5C 1031.5,1239.5 1031.5,1247.5 1031.5,1255.5C 1039.5,1255.5 1047.5,1255.5 1055.5,1255.5C 1055.5,1247.5 1055.5,1239.5 1055.5,1231.5C 1063.5,1231.5 1071.5,1231.5 1079.5,1231.5C 1079.5,1223.5 1079.5,1215.5 1079.5,1207.5C 1087.5,1207.5 1095.5,1207.5 1103.5,1207.5C 1103.5,1199.5 1103.5,1191.5 1103.5,1183.5C 1111.5,1183.5 1119.5,1183.5 1127.5,1183.5C 1127.5,1175.5 1127.5,1167.5 1127.5,1159.5C 1135.5,1159.5 1143.5,1159.5 1151.5,1159.5 Z"/></g>
</svg>
