<?xml version="1.0" encoding="UTF-8"?>
<!DOCTYPE svg PUBLIC "-//W3C//DTD SVG 1.1//EN" "http://www.w3.org/Graphics/SVG/1.1/DTD/svg11.dtd">
<svg xmlns="http://www.w3.org/2000/svg" version="1.1" width="370px" height="80px" style="shape-rendering:geometricPrecision; text-rendering:geometricPrecision; image-rendering:optimizeQuality; fill-rule:evenodd; clip-rule:evenodd" xmlns:xlink="http://www.w3.org/1999/xlink">
<g><path style="opacity:1" fill="#c7ccd2" d="M 29.5,6.5 C 32.8092,7.24209 35.6425,8.90875 38,11.5C 41.6292,26.3501 44.4626,41.3501 46.5,56.5C 44.0427,62.7005 40.8761,63.0339 37,57.5C 36.3345,52.8439 35.8345,48.1772 35.5,43.5C 32.1667,43.5 28.8333,43.5 25.5,43.5C 24.0667,51.1669 22.5667,58.8336 21,66.5C 16.2289,70.7866 13.3956,69.62 12.5,63C 15.3553,45.0788 19.8553,27.5788 26,10.5C 27.3756,9.29493 28.5423,7.9616 29.5,6.5 Z M 30.5,25.5 C 31.5629,28.2173 32.5629,31.0506 33.5,34C 31.8659,34.4935 30.1992,34.6602 28.5,34.5C 29.1667,31.5 29.8333,28.5 30.5,25.5 Z"/></g>
<g><path style="opacity:1" fill="#c7ccd2" d="M 55.5,6.5 C 63.5111,7.13464 71.5111,7.96797 79.5,9C 80.3333,9.83333 81.1667,10.6667 82,11.5C 82.1667,14.1667 82.3333,16.8333 82.5,19.5C 81.0027,34.1397 79.836,48.8064 79,63.5C 78.1667,64.3333 77.3333,65.1667 76.5,66C 70.1613,66.7235 63.828,67.0568 57.5,67C 53.5,64.3333 53.5,61.6667 57.5,59C 61.5,58.1667 65.5,57.3333 69.5,56.5C 70.4056,50.8757 71.0723,45.209 71.5,39.5C 67.8183,39.6653 64.1516,39.4986 60.5,39C 56.2586,35.1253 56.7586,31.9587 62,29.5C 65.4408,30.3822 68.9408,30.7155 72.5,30.5C 72.9272,26.1756 73.2605,21.8422 73.5,17.5C 67.466,16.9927 61.466,16.1594 55.5,15C 51.6054,12.178 51.6054,9.34463 55.5,6.5 Z"/></g>
<g><path style="opacity:1" fill="#c7ccd2" d="M 132.5,6.5 C 134.903,6.39297 136.736,7.39297 138,9.5C 138.5,16.4921 138.666,23.4921 138.5,30.5C 142.664,30.8745 146.664,30.8745 150.5,30.5C 151.124,23.5177 151.624,16.5177 152,9.5C 154.667,5.5 157.333,5.5 160,9.5C 160.136,24.834 159.803,40.1673 159,55.5C 156.333,59.5 153.667,59.5 151,55.5C 150.667,50.1667 150.333,44.8333 150,39.5C 146.24,40.3575 142.406,40.3575 138.5,39.5C 138.666,46.5079 138.5,53.5079 138,60.5C 135.333,64.5 132.667,64.5 130,60.5C 129.333,43.5 129.333,26.5 130,9.5C 131.045,8.62656 131.878,7.62656 132.5,6.5 Z"/></g>
<g><path style="opacity:1" fill="#c7ccd2" d="M 102.5,8.5 C 105.699,8.6964 107.699,10.3631 108.5,13.5C 105.741,16.7722 103.574,20.4389 102,24.5C 99.6924,32.0274 98.6924,39.694 99,47.5C 101.632,44.8076 103.966,45.141 106,48.5C 107.041,51.6363 106.207,54.1363 103.5,56C 104.5,56.6667 105.5,56.6667 106.5,56C 109.656,52.6876 112.323,49.0209 114.5,45C 110.775,44.4037 108.108,42.4037 106.5,39C 109.381,34.2418 113.381,33.2418 118.5,36C 123.152,38.9875 124.652,43.1541 123,48.5C 119.972,54.5342 115.805,59.7009 110.5,64C 108.466,65.0056 106.3,65.5056 104,65.5C 101.46,65.1042 98.9598,64.9375 96.5,65C 94.5486,68.0895 92.0486,70.5895 89,72.5C 85.0063,71.171 83.673,68.5043 85,64.5C 86.6667,62.8333 88.3333,61.1667 90,59.5C 88.1612,44.7657 89.8279,30.4323 95,16.5C 97.705,13.9638 100.205,11.2971 102.5,8.5 Z"/></g>
<g><path style="opacity:1" fill="#c7ccd2" d="M 222.5,8.5 C 229.09,8.0788 235.757,8.5788 242.5,10C 255.07,18.2628 255.736,27.4295 244.5,37.5C 248.363,47.5461 245.696,55.3794 236.5,61C 231.167,62.1284 226.001,63.6284 221,65.5C 216.451,64.6775 215.117,62.3441 217,58.5C 217.668,42.8124 218.668,27.1457 220,11.5C 221.045,10.6266 221.878,9.62656 222.5,8.5 Z M 229.5,17.5 C 234.032,17.074 238.199,18.074 242,20.5C 242.847,23.5876 242.347,26.4209 240.5,29C 236.229,30.2738 232.063,31.7738 228,33.5C 227.806,28.0826 228.306,22.7492 229.5,17.5 Z M 226.5,41.5 C 229.469,42.825 232.469,42.825 235.5,41.5C 236.415,42.3279 237.081,43.3279 237.5,44.5C 236.772,51.0364 233.106,54.0364 226.5,53.5C 226.5,49.5 226.5,45.5 226.5,41.5 Z"/></g>
<g><path style="opacity:1" fill="#c7ccd2" d="M 185.5,11.5 C 188.699,11.6964 190.699,13.3631 191.5,16.5C 187.355,29.7483 183.521,43.0816 180,56.5C 176.339,63.2695 173.173,63.1028 170.5,56C 172.093,48.5545 174.093,41.2212 176.5,34C 174.385,30.8815 171.885,28.0482 169,25.5C 168.088,22.6807 166.922,20.0141 165.5,17.5C 166.287,14.1961 168.287,12.6961 171.5,13C 175.116,15.7425 177.616,19.2425 179,23.5C 180.512,19.1166 182.679,15.1166 185.5,11.5 Z"/></g>
<g><path style="opacity:1" fill="#c7ccd2" d="M 199.5,11.5 C 203.002,11.1672 205.336,12.6672 206.5,16C 204.108,18.728 202.108,21.728 200.5,25C 203.373,28.2109 205.873,31.7109 208,35.5C 210.892,43.0503 209.559,49.717 204,55.5C 201.5,58 199,60.5 196.5,63C 189.93,64.4004 186.097,61.9004 185,55.5C 186.062,54.1007 187.395,53.1007 189,52.5C 190.393,53.6151 191.893,54.1151 193.5,54C 202.371,45.5265 201.871,37.3598 192,29.5C 191.035,25.2176 191.702,21.2176 194,17.5C 196.04,15.6298 197.873,13.6298 199.5,11.5 Z"/></g>
<g><path style="opacity:1" fill="#c7ccd2" d="M 312.5,15.5 C 316.803,15.9631 318.636,18.2965 318,22.5C 313.21,28.5757 309.043,35.0757 305.5,42C 309.587,47.6115 312.087,53.7782 313,60.5C 309.689,64.5268 306.689,64.1934 304,59.5C 303.275,57.0506 302.275,54.7173 301,52.5C 298.408,58.0224 296.075,63.6891 294,69.5C 291.333,73.5 288.667,73.5 286,69.5C 285.333,67.8333 285.333,66.1667 286,64.5C 288.442,57.1748 291.275,50.0081 294.5,43C 292.131,39.098 289.631,35.2646 287,31.5C 286.983,27.1882 289.15,25.3548 293.5,26C 295.684,28.0165 297.684,30.1831 299.5,32.5C 303.474,26.5301 307.807,20.8634 312.5,15.5 Z"/></g>
<g><path style="opacity:1" fill="#c7ccd2" d="M 343.5,28.5 C 350.419,28.459 356.753,30.2924 362.5,34C 365.614,39.7903 363.948,43.7903 357.5,46C 348.36,48.5773 339.693,47.5773 331.5,43C 327.294,39.2651 327.627,35.9318 332.5,33C 336.157,31.1776 339.824,29.6776 343.5,28.5 Z M 340.5,33.5 C 341.239,33.369 341.906,33.5357 342.5,34C 341.167,36.6667 341.167,39.3333 342.5,42C 338.968,42.3207 335.968,41.1541 333.5,38.5C 335.687,36.5784 338.02,34.9117 340.5,33.5 Z M 350.5,34.5 C 350.56,33.9569 350.893,33.6236 351.5,33.5C 354.623,34.7977 357.623,36.2977 360.5,38C 358.189,41.6637 354.855,42.997 350.5,42C 351.814,39.3953 351.814,36.8953 350.5,34.5 Z"/></g>
<g><path style="opacity:1" fill="#c7ccd2" d="M 262.5,30.5 C 273.088,29.2629 279.755,33.7629 282.5,44C 280.528,57.9767 272.528,64.6434 258.5,64C 253.766,61.1169 251.433,56.9503 251.5,51.5C 252.359,46.7733 253.526,42.1067 255,37.5C 257.479,35.0343 259.979,32.701 262.5,30.5 Z M 265.5,40.5 C 271.674,39.1729 273.841,41.5062 272,47.5C 270.419,52.2664 267.086,54.9331 262,55.5C 261.219,54.2713 260.719,52.938 260.5,51.5C 261.373,47.4242 263.04,43.7576 265.5,40.5 Z"/></g>
</svg>
